<svg width="512" height="215" fill="none" xmlns="http://www.w3.org/2000/svg"><path opacity=".4" d="M.19 210.812v-10.64a77.174 77.174 0 0111.2-5.32c4.106-1.493 8.026-2.426 11.76-2.8V33.572c-3.733-.746-7.653-1.773-11.76-3.08C7.283 29 3.55 27.32.19 25.453v-10.64h45.08c7.093 0 13.813-.28 20.16-.84 6.346-.56 13.626-.84 21.84-.84 8.96 0 17.64.654 26.04 1.96 8.4 1.307 15.867 3.64 22.4 7 6.533 3.36 11.76 8.12 15.68 14.28 3.92 5.974 5.88 13.72 5.88 23.24 0 5.974-1.12 11.574-3.36 16.8-2.053 5.04-5.04 9.52-8.96 13.44-3.733 3.92-8.213 7.187-13.44 9.8-5.04 2.614-10.547 4.48-16.52 5.6v1.12c5.973.747 11.947 2.147 17.92 4.2 6.16 2.054 11.667 5.04 16.52 8.96 4.853 3.92 8.773 8.867 11.76 14.84 3.173 5.787 4.76 12.694 4.76 20.72 0 10.08-2.24 18.76-6.72 26.04-4.48 7.28-10.547 13.254-18.2 17.92-7.467 4.667-16.053 8.12-25.76 10.36-9.707 2.054-19.787 3.081-30.24 3.081-3.92 0-8.213-.094-12.88-.28l-14-.56c-4.667-.187-9.24-.374-13.72-.56-4.294-.187-7.934-.281-10.92-.281H.19zm84.56-16.52c11.76 0 21-3.453 27.72-10.36 6.72-7.093 10.08-16.426 10.08-28 0-7.093-1.12-12.88-3.36-17.36-2.24-4.666-5.32-8.306-9.24-10.92-3.92-2.8-8.587-4.666-14-5.6-5.413-1.12-11.294-1.68-17.64-1.68H63.47v71.961c2.613.559 5.32 1.026 8.12 1.399 2.986.374 7.373.56 13.16.56zm-12.32-92.12c3.173 0 6.346-.093 9.52-.28 3.173-.373 6.16-.746 8.96-1.12 7.28-2.986 13.16-7.56 17.64-13.72 4.48-6.346 6.72-13.533 6.72-21.56 0-11.76-3.08-20.346-9.24-25.76-6.16-5.6-14.094-8.4-23.8-8.4-4.107 0-7.654.094-10.64.28-2.987.187-5.694.467-8.12.84v69.72h8.96zm235.596 68.04v10.64c.186 2.987.466 6.16.84 9.52l19.32 2.8v9.8c-2.24 1.12-5.32 2.24-9.24 3.36a346.294 346.294 0 01-12.04 3.36 142.183 142.183 0 01-12.32 2.241c-4.107.746-7.747 1.306-10.92 1.68h-9.52c-1.867-4.294-2.987-8.587-3.36-12.881-.374-4.293-.654-9.52-.84-15.68h-1.4c-.934 3.734-2.52 7.374-4.76 10.92-2.24 3.36-5.134 6.44-8.68 9.24-3.36 2.614-7.374 4.76-12.04 6.441-4.667 1.68-9.894 2.52-15.68 2.52-6.16 0-11.854-.934-17.08-2.8-5.227-1.867-9.8-4.481-13.72-7.841-3.92-3.36-7-7.373-9.24-12.04-2.24-4.853-3.36-10.266-3.36-16.24 0-8.4 1.586-15.306 4.76-20.72 3.173-5.413 8.12-9.8 14.84-13.16 6.906-3.546 15.68-6.16 26.32-7.84 10.826-1.68 23.893-2.893 39.2-3.64 1.493-16.053.84-27.813-1.96-35.28-2.8-7.466-8.867-11.2-18.2-11.2-5.787 0-11.107.934-15.96 2.8l-13.16 33.6h-12.32c-1.494-2.24-2.987-4.76-4.48-7.56a451.641 451.641 0 01-3.92-9.24c-1.12-3.36-2.147-6.72-3.08-10.08a97.794 97.794 0 01-1.68-9.8c7.093-4.853 16.24-8.68 27.44-11.48 11.2-2.8 23.053-4.2 35.56-4.2 10.64 0 19.32 1.214 26.04 3.64 6.72 2.24 11.946 5.414 15.68 9.52 3.92 3.92 6.626 8.587 8.12 14 1.493 5.414 2.24 11.2 2.24 17.36 0 11.2-.28 21.374-.84 30.52-.374 8.96-.56 18.2-.56 27.72zm-63 21.56c3.92 0 7.28-.746 10.08-2.24 2.8-1.493 5.133-3.266 7-5.32 2.053-2.053 3.546-4.293 4.48-6.72 1.12-2.426 1.96-4.573 2.52-6.44v-28c-8.774.187-15.96.747-21.56 1.68-5.6.934-9.987 2.52-13.16 4.76-3.174 2.054-5.414 4.76-6.72 8.12-1.12 3.174-1.68 7.094-1.68 11.76 0 7.094 1.68 12.6 5.04 16.52 3.36 3.92 8.026 5.88 14 5.88zm173.219 19.04h-77.28v-10.92c6.16-2.986 12.32-5.226 18.48-6.72V23.492l-21.28-2.24v-10.92c2.427-1.12 5.787-2.24 10.08-3.36 4.293-1.12 8.867-2.053 13.72-2.8 5.04-.933 9.987-1.68 14.84-2.24 5.04-.746 9.52-1.306 13.44-1.68h9.52v192.92c6.16 1.494 12.32 3.734 18.48 6.72v10.92zm92.969 0h-77.28v-10.92a50.347 50.347 0 018.68-3.64c2.987-1.12 6.253-2.146 9.8-3.08V90.692l-18.48-2.24v-10.92c2.8-1.12 6.253-2.24 10.36-3.36a142.27 142.27 0 0113.44-2.8c4.667-.933 9.24-1.68 13.72-2.24 4.48-.746 8.4-1.306 11.76-1.68h9.52v125.72c3.733.934 7.093 1.96 10.08 3.08a42.344 42.344 0 018.4 3.64v10.92zm-63.56-185.92c0-6.533 2.24-11.666 6.72-15.4 4.48-3.733 10.267-5.6 17.36-5.6s12.88 1.867 17.36 5.6c4.48 3.734 6.72 8.867 6.72 15.4 0 6.347-2.24 11.387-6.72 15.12-4.48 3.734-10.267 5.6-17.36 5.6s-12.88-1.866-17.36-5.6c-4.48-3.733-6.72-8.773-6.72-15.12z" fill="#F8EEE4"/></svg>